<?xml version="1.0" encoding="utf-8"?>
<!-- Generator: Adobe Illustrator 19.1.1, SVG Export Plug-In . SVG Version: 6.00 Build 0)  -->
<svg version="1.1" id="Calque_1" xmlns="http://www.w3.org/2000/svg" xmlns:xlink="http://www.w3.org/1999/xlink" x="0px" y="0px"
	 viewBox="0 0 539.5 445.9" style="enable-background:new 0 0 539.5 445.9;" xml:space="preserve">
<style type="text/css">
	.st0{fill:#F6D3E5;}
	.st1{fill:#EE8736;}
	.st2{fill:#D0BCA9;}
	.st3{fill:#020203;}
</style>
<g>
	<circle class="st0" cx="177" cy="267.8" r="120"/>
	<g>
		<path id="Points" class="st1" d="M212.6,256.7c7.3-17.1,24-34,50.5-54.4l-2.2-2.8c-27.3,21-47.4,31.9-64.8,34.8
			c-9.4-24.9-5.2-63.8,3.2-128.3l-2.4-0.3c-8.5,65-14.5,103.7-30.4,125.3c-16.6-6.8-33.7-22.7-55.5-51l-2.8,2.2
			c20.7,27,32.7,47.9,35.3,66.5c-24.8,9.7-63.8,5.9-128.8-2.6l-0.3,2.4c64.6,8.4,103.2,14.5,124.8,29.8
			c-7.6,16.8-24.3,33.6-50.4,53.7l2.2,2.8c27.8-21.4,48.2-32.3,65.8-34.9c10.5,24.6,6.5,63.5-2.1,129.8l2.4,0.3
			c8.6-65.8,14.5-104.5,30.7-125.6c16,7.3,32.5,23,53.3,50l1.9-1.1l0.6,1.9l0.2-1.8l0.5-1.1c-19.8-25.8-31.7-46.1-35.1-64.1
			c24.8-9.9,64.1-5.9,130.5,2.8l0.3-2.4C272.9,279.7,233.8,273.2,212.6,256.7z M233.5,222.8c-11.2,10.9-19.1,21.1-23.8,31.4
			c-5.2-4.7-9.2-10.1-12.1-16.6C208.3,235.7,219.9,230.9,233.5,222.8z M208.7,256.3c-4.3,10.2-5.4,20.5-3.5,31.6
			c-6.5,3.2-12,7.4-16.7,12.9c-5.4-2.4-10.8-4-16.3-4.7c-4.9-0.6-9.8-0.6-14.9,0c-3.5-6.9-8.2-12.7-14.3-17.6
			c4.1-9.4,5.5-18.8,4.3-28.9c7.7-3.5,14-8.4,19.4-14.9c4.4,1.7,8.7,2.8,13.2,3.4c5.1,0.7,10.3,0.6,15.7-0.2
			C198.6,245.2,202.9,251.2,208.7,256.3z M189.7,170.5c-2.1,28.1-1.3,48.6,4.3,64.1c-4.8,0.6-9.4,0.6-13.9,0
			c-3.8-0.5-7.6-1.4-11.4-2.8C178.3,218.3,184.5,198.5,189.7,170.5z M131.6,209.5c11.7,12,22.2,19.8,32.7,24.3
			c-4.9,5.8-10.6,10.2-17.5,13.4C145.1,235.7,140,223.4,131.6,209.5z M79.1,255.6c28.6,2.1,49.3,1.3,64.8-4.6
			c0.9,8.8-0.4,17.1-3.8,25.4C126.6,266.9,106.9,260.8,79.1,255.6z M118.4,311.3c11.1-10.8,18.9-20.9,23.7-31.1
			c5.7,4.5,10,9.8,13.2,16.1C144.3,298.1,132.3,303,118.4,311.3z M164.2,366.3c2.2-29.8,1.2-51.1-5.4-66.8c4.5-0.5,8.9-0.5,13.1,0.1
			c4.8,0.6,9.5,1.9,14.3,4C176,317,169.6,337.2,164.2,366.3z M220.2,324.6c-10.7-11-20.5-18.5-30.1-23.1c4.4-5,9.4-8.9,15.4-11.8
			C207.6,300.4,212.5,311.9,220.2,324.6z M208.9,286.2c-1.5-9.6-0.6-18.5,2.8-27.4c13.5,10.4,33.8,16.9,63.1,22.3
			C245.6,279,224.5,279.9,208.9,286.2z"/>
		<g>
			<path id="W" class="st2" d="M34.3,247.8c-1.2,9.4-9.9,16.1-19.3,14.8c-9.4-1.2-16.1-9.9-14.8-19.3c1.2-9.4,9.9-16.1,19.3-14.8
				C28.9,229.7,35.5,238.3,34.3,247.8z"/>
			<path id="S" class="st2" d="M175.1,430.9c-1.2,9.4-9.9,16.1-19.3,14.8c-9.4-1.2-16.1-9.9-14.8-19.3c1.2-9.4,9.9-16.1,19.3-14.8
				C169.7,412.8,176.4,421.4,175.1,430.9z"/>
			<path id="E" class="st2" d="M358.2,290c-1.2,9.4-9.9,16.1-19.3,14.8c-9.4-1.2-16.1-9.9-14.8-19.3c1.2-9.4,9.9-16.1,19.3-14.8
				C352.8,271.9,359.5,280.6,358.2,290z"/>
		</g>
		<path class="st2" d="M242.3,102.3c-12-14.2-19.1-31.7-22.6-49.9c-3-15.8,1-31.1-0.1-46.4c-0.6-8.6-12.9-7.5-14.2,0.1
			c-3.4,0.7-6.7,3.4-6.6,7.8c0.2,25.3-16.7,57.6-38.4,70c-7.1,4.1-3.5,15.2,3.2,14.1c0.7,2.3,2.5,4.2,5.7,4.5
			c5.3,0.5,10.4,1.6,15.7,2.4c5.7,0.9,9.3-4.9,7.6-9.9c-1.9-5.5,18.7-7.3,13.1,3.9c-2.1,4.3,1.3,9.3,5.7,9.9
			c7.6,1.1,14.9,2.1,22.3,4.4C240,115.3,247.4,108.4,242.3,102.3z M178.4,89.3c-0.3-0.1-0.7-0.1-1-0.1c0.5-0.4,0.9-0.8,1.4-1.2
			C178.6,88.4,178.5,88.8,178.4,89.3z M205,50.6c0.5,3.3,1,6.6,1.6,9.9c0.5,2.6,1.1,5.1,1.8,7.7c-0.2-0.1-0.4-0.1-0.7-0.2
			c-0.1,0-0.3,0-0.5,0c-0.3-0.1-0.5-0.2-0.8-0.2c-3.1-0.5-6.5-0.9-9.9-0.7C199.8,61.8,202.6,56.3,205,50.6z M212.6,80.7
			c0,0.1,0,0.1,0.1,0.2C212.6,80.8,212.6,80.8,212.6,80.7C212.6,80.7,212.6,80.7,212.6,80.7z"/>
	</g>
	<g>
		<g>
			<path class="st3" d="M179.4,311.5c5.1-4.5,8.9-10.1,11.5-16.8c2.6-6.7,3.5-15,2.8-24.9c-0.6-8.5-2.9-15.6-6.9-21.2
				c-4-5.6-8.9-10-14.5-13.4c-5.6-3.4-11.6-5.8-17.8-7.3c-6.3-1.5-11.9-2.5-17-3c2.3-8.3,6.4-15.5,12.1-21.3
				c5.8-5.9,13-9.4,21.6-10.6c4-0.6,7.2,0.1,9.6,1.8c2.4,1.8,3.9,4,4.7,6.5c0.7,2.5,0.6,4.9-0.4,7.2c-1,2.3-2.9,3.6-5.7,4
				c-0.7,0.1-1.6-0.2-2.6-0.8c-1-0.6-1.8-1.5-2.5-2.7c-0.7-1.2-1-2.5-1-3.9c0-1.4,0.8-2.9,2.2-4.5c0.4-0.5,0.5-1.1,0.3-1.7
				c-0.2-0.7-0.5-0.8-1.1-0.4c-1.7,0.8-2.8,2.2-3.4,4c-0.6,1.8-0.6,3.7-0.1,5.6c0.5,1.9,1.5,3.5,3,4.9c1.5,1.4,3.4,2.1,5.6,2.1
				c3.5,0,5.9-1.4,7.4-4.2c1.4-2.8,1.8-5.8,1-9c-0.8-3.2-2.6-6.1-5.6-8.5c-3-2.5-7.1-3.4-12.3-2.8c-5.4,0.6-10.3,2-14.8,4.1
				c-4.5,2.1-8.5,4.8-12.1,7.9c-3.6,3.1-6.7,6.6-9.3,10.4c-2.7,3.8-4.9,7.6-6.8,11.5c-8.6,0.3-17.3,2-26.1,5.2
				c-8.8,3.2-16.7,7.5-23.6,12.9c-7,5.4-12.5,11.8-16.6,19.1c-4.1,7.3-5.9,15.2-5.3,23.6c0.4,4.8,1.7,8.2,4.1,10.2
				c2.4,2,5,2.9,7.9,2.8c2.9-0.2,5.5-1.3,7.8-3.2c2.4-2,3.7-4.5,4.1-7.6c0.4-1.7-0.1-2.8-1.5-3.2c-1.3-0.4-2.2-0.1-2.7,1.1
				c-0.4,3.4-1.5,5.8-3.2,7.4c-1.7,1.5-3.5,2.2-5.4,2c-1.9-0.2-3.7-1.1-5.3-2.8c-1.6-1.7-2.5-4-2.6-7c-0.4-8.3,1.4-15.9,5.4-22.9
				c4-7,9.3-13,15.9-18c6.6-5,13.9-8.9,22.1-11.7c8.2-2.8,16.2-4.2,24-4.3c-2.3,8.3-3.9,16.4-4.8,24.3c-0.9,7.8-1.3,15.7-1.1,23.7
				c0.1,7.9,0.6,16,1.5,24.3c0.8,8.3,1.8,17,3,26.3c-4.1,0.1-7.3-0.4-9.8-1.6c-2.4-1.2-4.3-2.7-5.5-4.5c-1.2-1.8-1.9-3.6-2.1-5.4
				c-0.2-1.8-0.1-3.3,0.2-4.6c0.6-1.4,0.3-2.2-0.8-2.3c-1.1-0.1-1.7,0.6-2,2c-0.3,3.1,0,5.8,0.9,8.3c0.9,2.4,2.3,4.5,4.2,6.2
				c1.8,1.7,4.1,3,6.8,3.9c2.7,0.9,5.6,1.5,8.6,1.6c0.6,5.1,1,11.2,1.4,18.4c0.4,7.2,0.4,14.8-0.1,22.7c-0.5,7.9-1.5,15.9-2.9,23.9
				c-1.5,8-3.7,15.3-6.8,21.8c-3.1,6.6-7.1,12.1-12.1,16.7c-5,4.6-11.1,7.3-18.4,8.3c-9.8,1.4-17.6-0.5-23.4-5.5
				c-5.8-5-9.3-12.1-10.5-21.1c-0.5-3.9-0.7-8.2-0.4-13.1c0.3-4.9,1.2-9.6,2.8-14.1c1.6-4.5,3.8-8.5,6.7-11.9
				c2.9-3.4,6.8-5.5,11.7-6.2c3.4-0.5,5.9,0.7,7.5,3.5c1.6,2.8,2.3,6,2.2,9.6c-0.1,3.6-1,6.9-2.8,9.9c-1.8,3-4.3,4.5-7.7,4.4
				c-1.5-0.2-2.2,0.2-2.1,1.3c0.2,1.1,1,1.6,2.5,1.4c3.2-0.1,5.8-1.1,7.8-2.9c2-1.8,3.5-4,4.3-6.6c0.8-2.6,1.1-5.3,0.9-8.2
				c-0.2-2.8-0.9-5.5-1.9-7.9c-1-2.4-2.4-4.4-4.2-5.8c-1.8-1.4-3.9-1.9-6.5-1.6c-5.3,0.7-9.8,2.8-13.4,6.3
				c-3.6,3.5-6.5,7.5-8.6,12.2c-2.1,4.7-3.5,9.7-4.1,15.1c-0.6,5.4-0.6,10.3,0,14.8c0.4,4.9,1.7,9.4,3.9,13.4c2.2,4,5.1,7.3,8.8,9.9
				c3.6,2.6,7.8,4.4,12.5,5.5c4.7,1.1,9.7,1.3,15.1,0.5c9.7-1.3,17.7-4.1,24.1-8.1c6.4-4.1,11.6-9.1,15.6-15c4-5.9,7-12.6,8.8-20
				c1.8-7.4,3-15.1,3.6-23.2c0.5-8.1,0.6-16.3,0.2-24.7c-0.4-8.3-0.8-16.4-1.3-24.2c8-2,15.6-4.4,22.7-7.2
				C168.2,319.7,174.3,316,179.4,311.5z M138.3,325.7c-0.8-7.8-1.6-15.7-2.4-24c-0.8-8.2-1.5-16.5-2-24.8
				c-0.5-8.3-0.5-16.6-0.2-24.7c0.4-8.1,1.5-16.1,3.3-23.7c4.9,0.5,9.9,1.8,15.1,3.9c5.1,2.1,9.9,5,14.3,8.7c4.4,3.7,8,8.3,11,13.9
				c3,5.6,4.8,12,5.5,19.3c0.5,6.1-0.4,12.1-3,17.9c-2.5,5.8-5.9,11.1-10.3,15.8c-4.3,4.8-9.3,8.7-14.8,11.8
				C149.3,322.9,143.8,324.9,138.3,325.7z"/>
			<path class="st3" d="M375.7,274.4c2.7-0.4,4.9-1.9,6.7-4.6c1.8-2.7,2.5-5.3,2-7.8c-0.3-1.2-0.9-2.2-1.8-3.2
				c-0.9-0.9-2.1-1.3-3.8-1.1c-2.1,0.3-3.8,1.1-5.1,2.4c-1.3,1.3-2.3,2.7-3,4.3c-0.7,1.5-1,3.1-1.1,4.7c0,1.6,0.3,2.8,1.1,3.6
				C372,274.2,373.6,274.7,375.7,274.4z"/>
			<path class="st3" d="M538.4,289.6c-1,0.1-1.6,0.1-1.9,0.2c-1.6,0.7-4.5,2-8.9,4c-4.3,2-9.2,4.2-14.5,6.8
				c-5.3,2.6-10.7,5.2-16.1,8c-5.4,2.8-10,5.4-13.8,7.7c-5.2-1.5-10.2-3.1-14.9-4.6c-4.8-1.5-8.9-3.1-12.4-4.6
				c-3.5-1.6-6.3-3.1-8.3-4.6c-2-1.5-2.7-2.9-2.3-4.2c0.5-1.7,0.5-3.1,0-4.2c-0.5-1.1-1.3-1.7-2.2-2c-0.9-0.2-2,0-3.1,0.8
				c-1.1,0.8-1.8,2.1-2.1,4.2c-0.1,1.7,0.3,3.1,1.1,4.4c0.8,1.3,1.8,2.3,3.1,3.2c0.2,0.1,0.4,0.3,0.7,0.4c-0.6,2.3-1.2,5.3-2,9
				c-1,4.9-2.2,10.4-3.7,16.5c-1.5,6.1-3.2,12.4-5,18.9c-1.8,6.5-3.9,12.4-6.2,17.8c-2.3,5.4-4.8,9.9-7.4,13.5
				c-2.7,3.6-5.6,5.7-8.7,6.1c-4.4,1.1-7.9,0.6-10.6-1.4c-2.7-2-4.8-4.9-6.3-8.8c-1.5-3.9-2.6-8.5-3.2-14c-0.6-5.4-1-11.1-1.1-16.9
				c-0.1-5.8-0.2-11.6-0.1-17.3c0-5.8-0.1-10.9-0.3-15.4c-0.3-4.5-0.8-8.2-1.7-11.1c-0.9-2.9-2.3-4.4-4.3-4.6
				c-1.7-0.4-3.1-0.1-4.2,0.9c-1.1,1-2,2.4-2.7,4.3c-0.7,1.9-1.2,4.1-1.5,6.7c-0.3,2.5-0.4,5.1-0.3,7.6c0.2,2.9,0.4,5.7,0.6,8.5
				c-1.7,4.8-3.6,9.9-5.7,15.3c-2.3,5.8-4.8,11.6-7.6,17.4c-2.7,5.8-5.6,11.3-8.6,16.3c-3,5-6.2,9.3-9.5,12.8
				c-3.3,3.5-6.6,5.8-9.9,6.8c-2.1,0.3-3.7,0.1-4.8-0.5c-1.1-0.6-2-1.5-2.6-2.7c-0.6-1.2-1-2.6-1.3-4.1c-0.2-1.6-0.4-3.2-0.7-4.8
				c0.2-9.1,1.1-17.5,2.6-25.1c1.5-7.6,2.4-14.6,2.7-21c0-0.1-0.2-0.5-0.6-1.2c-0.4-0.6-0.9-1.2-1.6-1.8c-0.7-0.6-1.5-1.1-2.4-1.5
				c-0.9-0.4-1.9-0.5-2.9-0.4c-1.5-0.1-3.5-0.1-5.9-0.1c-2.4,0-4.9,0-7.5-0.1c-2.6-0.1-5.2-0.3-7.8-0.6c-2.6-0.3-4.8-0.9-6.6-1.7
				c0.3-3.1-0.1-5.5-1.2-7.3c-1.2-1.8-2.5-3.1-4-3.8c-1.5-0.7-3-0.9-4.4-0.6c-1.4,0.3-2.3,0.9-2.6,1.8c-0.9,3.3-0.6,5.8,0.8,7.6
				c0.8,0.9,1.8,1.8,3,2.5c-0.6,2.3-1.2,4.7-1.8,7.4c-1.2,5.2-2.6,10.6-4.1,16.3c-1.5,5.7-3,11.5-4.6,17.3
				c-1.6,5.8-3.4,11.2-5.3,16.1c-1.9,4.9-3.8,9.1-5.9,12.5c-2,3.5-4.2,5.7-6.4,6.8c-4.5,2.3-7.9,1-10.1-3.9
				c-2.2-4.9-4-13.7-5.5-26.4c-0.6-6.1-1.1-13.2-1.6-21.2c-0.5-8-1.2-16.7-2-25.9c-0.4-1.9-1.1-3.3-2.1-4c-1-0.8-2.1-1.1-3.2-1
				c-1.1,0.1-2.2,0.6-3.3,1.6c-1.1,1-1.8,2.2-2.2,3.6c-3.8-2.5-7.3-4.4-10.4-5.7c-3.1-1.3-6.9-1.6-11.4-1c-5.9,0.8-11,3.1-15.2,6.9
				c-4.2,3.8-7.5,8.4-10,13.9c-2.5,5.5-4.1,11.5-4.9,18c-0.8,6.5-0.6,12.9,0.4,19.1c0.6,4.5,1.9,8.6,3.8,12.3c1.9,3.8,4.3,7,7.1,9.7
				c2.9,2.7,6.2,4.7,10,6c3.8,1.3,8,1.6,12.6,1c5.6-0.8,10.6-2.7,14.8-5.7c4.2-3,8.2-6.5,12-10.5c0.4,2.1,1,4.3,1.7,6.8
				c0.7,2.5,1.6,4.7,2.7,6.7c1.1,2,2.5,3.5,4.3,4.7c1.8,1.2,4,1.6,6.9,1.2c3.5-0.6,6.6-2.2,9.3-4.8c2.7-2.6,5-5.6,7.1-9.2
				c2.1-3.5,3.8-7.4,5.3-11.6c1.5-4.2,2.8-8.4,4-12.6c1.2-4.2,2.3-8,3.3-11.6c0.9-3.5,1.9-6.5,3-8.9c1.8-6.9,3.1-12.3,3.9-16.1
				c0.5-2.4,0.9-4.4,1.1-6.1c0.1,0,0.2,0.1,0.3,0.1c3,0.9,6.7,1.6,11,2.1c4.3,0.5,8.9,1.1,13.9,1.9l-0.3,45c0,7.6,1.8,12.8,5.5,15.7
				c3.7,2.9,8.1,4,13.3,3.3c3.3-0.2,6.7-1.8,10.2-5.1c3.5-3.2,6.9-7.3,10.2-12.3c3.3-5,6.5-10.6,9.5-16.8c3-6.2,5.7-12.3,8.2-18.3
				c1.7-4.1,3.2-8.1,4.6-12c0.3,3.7,0.6,7.5,0.9,11.2c0.8,9.4,2.3,17.6,4.7,24.8s5.8,12.8,10.3,16.8c4.5,4.1,10.7,5.5,18.5,4.2
				c3.2,0.2,6.3-1.2,9.2-4.2c2.9-3,5.7-6.9,8.2-11.7c2.6-4.8,5-10.3,7.1-16.5c2.2-6.2,4-12.5,5.6-19c1.6-6.4,3-12.7,4.2-18.9
				c1-5.2,1.7-9.9,2.2-14.1c0.2,0.1,0.4,0.2,0.6,0.3c1.4,0.6,2.8,1.2,4.1,1.6c1.3,0.6,3.5,1.4,6.5,2.6c3,1.2,6.2,2.3,9.4,3.5
				c3.3,1.1,6.2,2.2,8.8,3.1c2.6,0.9,4.2,1.4,4.6,1.5c-4.5,3.4-7.9,7.3-10.2,11.7c-2.3,4.5-3.5,9.1-3.9,13.8
				c-0.3,4.7,0.3,9.3,1.8,13.7c1.5,4.4,3.8,8.3,6.8,11.5c3,3.3,6.7,5.8,11,7.5c4.3,1.7,9.1,2.3,14.3,1.5c8.6-1.2,14.6-4.8,18-10.7
				c3.4-5.9,4.1-13.7,2-23.2c-0.9-4.1-2.6-7.8-5-11c-2.5-3.2-5.3-6-8.5-8.3c-3.2-2.4-6.6-4.2-10.1-5.6c-3.5-1.4-6.8-2.4-9.7-2.8
				c2.5-1.7,6.3-3.9,11.3-6.7c5.1-2.8,10.3-5.4,15.8-8.1c5.5-2.7,10.6-5.1,15.5-7.3c4.8-2.2,8.4-3.7,10.7-4.4
				C539.7,289.9,539.4,289.5,538.4,289.6z M231.8,390.3c-1.7,2.2-3.7,4.2-6,6.1c-2.3,1.8-4.8,3.4-7.4,4.7c-2.6,1.3-4.9,2-6.8,2.3
				c-3.9,0.5-7.1-0.3-9.8-2.6c-2.7-2.3-4.8-5.1-6.5-8.5c-1.7-3.4-3-7-4-10.8c-1-3.8-1.6-7-2-9.5c-0.5-3.6-0.7-7.9-0.7-13
				c0-5.1,0.7-10,1.9-14.9c1.2-4.9,3.2-9.1,5.8-12.8c2.7-3.7,6.4-5.9,11.1-6.5c4.3-0.6,8.2,0.1,11.8,2.2c3.5,2.1,6.4,5,8.6,8.8
				c1.1,4.8,2,9,2.7,12.3c0.7,3.4,1.3,7.2,1.9,11.3c0.6,4.3,1,8.2,1.3,11.6c0.3,3.4,0.5,7.7,0.7,12.6
				C234.3,385.9,233.4,388.1,231.8,390.3z M490.8,323.8c2.6,2.1,5,4.5,7,7.2c2,2.7,3.7,5.7,5.1,8.7c1.3,3.1,2.2,6,2.6,8.8
				c0.3,2.2,0.6,4.9,0.9,7.9c0.3,3.1,0.2,6-0.1,8.9c-0.4,2.9-1.2,5.3-2.5,7.4c-1.3,2.1-3.3,3.2-6,3.4c-4.5,0.5-8.5-0.2-12-2.1
				c-3.5-1.9-6.4-4.4-8.8-7.7c-2.4-3.3-4.1-7.1-5.2-11.3c-1.1-4.2-1.5-8.5-1.1-12.9c0.4-4.4,1.5-8.5,3.4-12.5
				c1.9-4,4.7-7.3,8.4-10.1C485.3,320.3,488.1,321.8,490.8,323.8z"/>
		</g>
		<path class="st3" d="M50.1,296.2C50,296.2,50,296.2,50.1,296.2c-0.3,0.7-0.5,1.4-0.7,2.3c-0.2,0.8-0.6,1.6-0.9,2.3
			c-0.4,0.7-0.9,1.3-1.5,1.9c-0.6,0.5-1.3,0.8-2.3,0.8c-0.7,0-1.2-0.2-1.7-0.6c-0.4-0.4-0.8-0.9-1-1.4s-0.4-1.2-0.5-1.8
			c-0.1-0.6-0.2-1.2-0.2-1.8c0,0,0-0.1,0-0.2c0-0.1,0-0.2,0-0.2c0.3,0,0.6-0.1,1-0.1c0.4,0,0.7-0.1,1.1-0.2c0.3-0.1,0.6-0.3,0.8-0.5
			c0.2-0.2,0.4-0.5,0.4-1c0-0.5-0.2-0.8-0.5-0.9c-0.3-0.2-0.6-0.3-1-0.3c-1,0-1.8,0.3-2.4,0.9c-0.3,0.3-0.5,0.8-0.7,1.3
			c-0.1,0-0.3,0-0.4,0c-0.4,0-0.7-0.1-1-0.2c-0.3-0.1-0.7-0.3-1.1-0.5c-0.4-0.2-0.8-0.5-1.3-0.9c0,0.1,0,0-0.1-0.3
			c0-0.3-0.1-0.7-0.1-1.3c-0.1-0.5-0.1-1.2-0.2-1.9c-0.1-0.7-0.2-1.4-0.3-2.2c-0.1-0.7-0.3-1.5-0.5-2.1s-0.4-1.3-0.7-1.8
			c-0.3-0.5-0.5-0.9-0.9-1.1c-0.3-0.2-0.7-0.3-1.1-0.1c-0.5,0.2-0.8,0.5-0.9,1c-0.2,0.5-0.2,1-0.2,1.6c0,0.6,0.2,1.3,0.4,2
			c0.2,0.7,0.5,1.4,0.8,2.1c0.3,0.7,0.7,1.4,1.1,2c0.4,0.6,0.8,1.2,1.3,1.7l0.2,2.8c-0.3-0.5-0.6-0.8-0.9-1.2
			c-0.4-0.3-0.7-0.6-1.1-0.8c-0.4-0.2-0.8-0.3-1.1-0.3c-0.4,0-0.7,0-1,0.2c-0.5,0.3-1,0.7-1.3,1.2c-0.4,0.5-0.6,1-0.8,1.6
			c-0.2,0.6-0.3,1.2-0.3,1.9c0,0.7,0.1,1.3,0.3,1.9c0.2,0.6,0.5,1.1,0.8,1.6c0.4,0.5,0.9,0.9,1.5,1.1c0.7,0.3,1.4,0.3,2,0.2
			c0.6-0.1,1.2-0.4,1.8-1c0.2-0.2,0.3-0.4,0.4-0.6c0.1-0.2,0.3-0.5,0.4-0.8c0,0.3,0,0.7,0.1,1c0,0.4,0.1,0.7,0.3,0.9
			c0.1,0.3,0.3,0.5,0.6,0.7c0.2,0.2,0.5,0.2,0.9,0.2c0.1,0,0.1,0,0.2-0.1c0-0.1,0.1-0.1,0.1-0.2s0-0.1-0.1-0.2c0,0-0.1-0.1-0.2,0
			c-0.3,0.1-0.5,0-0.7-0.4c-0.2-0.3-0.3-0.8-0.4-1.3c-0.1-0.5-0.1-1.2-0.1-1.9c0-0.7,0-1.4,0-2.1c0-0.7,0-1.4,0-2.1
			c0-0.7,0-1.2,0-1.6c0.2,0.2,0.5,0.4,0.8,0.6s0.7,0.4,1.1,0.6c0.4,0.2,0.8,0.3,1.3,0.4c0.2,0,0.3,0,0.5,0c-0.1,0.3-0.1,0.6-0.1,1
			c0,0.6,0.1,1.3,0.2,2.1s0.4,1.5,0.8,2.2c0.3,0.7,0.8,1.2,1.3,1.7c0.5,0.5,1.1,0.7,1.9,0.7c0.7,0,1.3-0.1,1.8-0.3
			c0.5-0.3,1-0.6,1.5-1.1s0.8-1,1.1-1.6c0.3-0.6,0.6-1.2,0.9-1.8c0.2-0.6,0.4-1.2,0.6-1.8c0.1-0.6,0.3-1.1,0.3-1.5
			C50.1,296.3,50.1,296.2,50.1,296.2z M41.5,296.1c0.1-0.3,0.2-0.5,0.4-0.7c0.2-0.2,0.4-0.4,0.6-0.5c0.2-0.1,0.5-0.2,0.8-0.2
			c0.3,0,0.5,0.1,0.6,0.3c0.1,0.2,0.2,0.4,0.2,0.7c0,0.3-0.1,0.6-0.3,0.8c-0.2,0.2-0.4,0.3-0.7,0.3c-0.3,0.1-0.6,0.1-0.9,0.1
			c-0.3,0-0.6,0-0.8,0C41.4,296.6,41.4,296.3,41.5,296.1z M33,291.1c-0.5-1-0.9-2-1.1-2.9c-0.2-0.9-0.3-1.7-0.3-2.4
			c0.1-0.7,0.3-1.1,0.7-1.3c0.2,0,0.4,0.2,0.6,0.6c0.2,0.4,0.4,1,0.5,1.7c0.2,0.7,0.3,1.4,0.5,2.2c0.1,0.8,0.3,1.6,0.4,2.3
			c0.1,0.7,0.2,1.3,0.3,1.9c0.1,0.5,0.1,0.8,0.2,0.9C34.1,293.2,33.5,292.2,33,291.1z M34.9,301.7c-0.2,0.8-0.4,1.5-0.6,1.9
			c-0.2,0.4-0.5,0.7-0.8,0.8c-0.3,0.2-0.6,0.3-0.9,0.3c-0.3,0-0.6-0.1-1-0.2c-0.3-0.2-0.6-0.4-0.9-0.7c-0.4-0.4-0.6-0.9-0.8-1.6
			c-0.2-0.6-0.2-1.3-0.2-2.1c0-0.7,0.1-1.4,0.3-2.1c0.2-0.7,0.4-1.3,0.7-1.7c0.2-0.4,0.5-0.6,0.8-0.7c0.3-0.1,0.6-0.1,0.9,0
			c0.3,0.1,0.6,0.3,0.9,0.5c0.3,0.2,0.6,0.5,0.8,0.8s0.4,0.6,0.6,0.9c0.2,0.3,0.3,0.6,0.3,0.9C35.1,299.9,35.1,300.9,34.9,301.7z"/>
		<g id="aux...">
			<path class="st3" d="M40.7,227.2c0.1-0.2,0.2-0.4,0.4-0.5c0.2-0.1,0.4-0.1,0.6-0.1l11.2,2.9c0.2,0.1,0.4,0.2,0.5,0.4
				c0.1,0.2,0.1,0.4,0.1,0.6c-0.1,0.2-0.2,0.4-0.4,0.5c-0.2,0.1-0.4,0.1-0.6,0.1l-1.5-0.4c1.2,1.6,1.5,3.4,1,5.4
				c-0.4,1.7-1.4,3.1-3,4c-1.6,0.9-3.2,1.2-4.9,0.7c-1.7-0.4-3.1-1.4-4-3c-0.9-1.6-1.2-3.2-0.7-5c0.5-2,1.7-3.4,3.5-4.2l-1.5-0.4
				c-0.2-0.1-0.4-0.2-0.5-0.4C40.7,227.6,40.6,227.4,40.7,227.2z M48.1,238.7c1.2-0.7,1.9-1.7,2.3-3c0.3-1.3,0.2-2.6-0.5-3.8
				c-0.7-1.2-1.7-1.9-3-2.3c-1.3-0.3-2.6-0.2-3.8,0.5c-1.2,0.7-1.9,1.7-2.3,3c-0.3,1.3-0.2,2.6,0.5,3.7c0.7,1.2,1.7,1.9,3,2.3
				C45.7,239.5,47,239.4,48.1,238.7z"/>
			<path class="st3" d="M45.7,214.1c-0.1-0.2-0.1-0.4,0-0.6c0.1-0.2,0.2-0.3,0.4-0.4c0.2-0.1,0.4-0.1,0.6,0l6.7,2.5
				c1.3,0.5,2.2,1.3,2.8,2.6c0.6,1.2,0.6,2.5,0.1,3.8c-0.5,1.3-1.4,2.2-2.6,2.8c-1.3,0.6-2.5,0.6-3.8,0.1l-6.7-2.5
				c-0.2-0.1-0.4-0.2-0.4-0.4c-0.1-0.2-0.1-0.4,0-0.6c0.1-0.2,0.2-0.4,0.4-0.5c0.2-0.1,0.4-0.1,0.6,0l6.7,2.5
				c0.9,0.3,1.7,0.3,2.6-0.1c0.8-0.4,1.4-1,1.8-1.9c0.3-0.9,0.3-1.7-0.1-2.6c-0.4-0.9-1-1.4-1.9-1.8l-6.7-2.5
				C46,214.4,45.8,214.3,45.7,214.1z"/>
			<path class="st3" d="M51.5,200.8c0.1-0.2,0.2-0.3,0.5-0.4c0.2-0.1,0.4-0.1,0.6,0c0.2,0.1,0.3,0.2,0.4,0.4l2.7,6l6.7-1.4
				c0.2-0.1,0.3,0,0.5,0.1c0.2,0.1,0.3,0.2,0.4,0.5c0.1,0.2,0.1,0.4,0,0.6c-0.1,0.2-0.3,0.4-0.5,0.4l-6.5,1.4l2.9,6
				c0.1,0.2,0.1,0.4,0,0.7c-0.1,0.2-0.2,0.3-0.5,0.4c-0.2,0.1-0.4,0.1-0.6,0c-0.2-0.1-0.3-0.2-0.4-0.4l-3-6.2l-6.4,1.6
				c-0.2,0.1-0.4,0-0.5-0.1c-0.2-0.1-0.3-0.2-0.4-0.5c-0.1-0.2-0.1-0.4,0-0.6c0.1-0.2,0.3-0.4,0.5-0.4l6.2-1.5l-2.6-5.8
				C51.4,201.3,51.4,201,51.5,200.8z"/>
			<path class="st3" d="M64.7,180.5c0.1-0.2,0.3-0.3,0.5-0.3c0.2,0,0.4,0,0.6,0.1L80,190.6c0.2,0.1,0.3,0.3,0.3,0.5
				c0,0.2,0,0.4-0.1,0.6c-0.1,0.2-0.3,0.3-0.5,0.3c-0.2,0-0.4,0-0.6-0.1l-6.1-4.4c0.5,1.9,0.1,3.7-1,5.4c-1.1,1.5-2.5,2.3-4.3,2.6
				c-1.8,0.3-3.4-0.1-4.9-1.1c-1.5-1.1-2.3-2.5-2.6-4.3c-0.3-1.8,0.1-3.4,1.1-4.9c1.2-1.6,2.8-2.5,4.8-2.7l-1.2-0.9
				c-0.2-0.1-0.3-0.3-0.3-0.5C64.5,180.9,64.5,180.7,64.7,180.5z M67.4,193.9c1.4-0.2,2.4-0.9,3.2-2c0.8-1.1,1.1-2.3,0.9-3.7
				c-0.2-1.4-0.9-2.4-2-3.2c-1.1-0.8-2.3-1.1-3.7-0.9c-1.3,0.2-2.4,0.9-3.2,2c-0.8,1.1-1.1,2.3-0.9,3.7c0.2,1.3,0.9,2.4,2,3.2
				C64.8,193.9,66,194.1,67.4,193.9z"/>
			<path class="st3" d="M74.1,170.1c0-0.2,0-0.4,0.2-0.6c0.1-0.2,0.3-0.2,0.6-0.2c0.2,0,0.4,0.1,0.6,0.2l5.3,4.8
				c1,0.9,1.6,2.1,1.6,3.4c0.1,1.4-0.3,2.6-1.3,3.6c-0.9,1-2.1,1.6-3.4,1.6c-1.4,0.1-2.6-0.3-3.6-1.3l-5.3-4.8
				c-0.2-0.1-0.3-0.3-0.3-0.5c0-0.2,0-0.4,0.2-0.6c0.2-0.2,0.3-0.3,0.6-0.3c0.2,0,0.4,0.1,0.6,0.2l5.3,4.8c0.7,0.6,1.5,0.9,2.4,0.9
				c0.9,0,1.7-0.4,2.3-1.1c0.6-0.7,0.9-1.5,0.9-2.4c0-0.9-0.4-1.7-1.1-2.3l-5.3-4.8C74.2,170.5,74.1,170.4,74.1,170.1z"/>
			<path class="st3" d="M86.4,158.1c0.2-0.1,0.4-0.2,0.6-0.2c0.2,0,0.4,0.1,0.5,0.3l7.7,8.6c0.1,0.2,0.2,0.4,0.2,0.6
				c0,0.2-0.1,0.4-0.3,0.5c-0.2,0.2-0.4,0.2-0.6,0.2c-0.2,0-0.4-0.1-0.5-0.3l-1-1.1c0.1,2-0.7,3.7-2.2,5c-1.3,1.2-2.9,1.7-4.7,1.6
				c-1.8-0.1-3.3-0.8-4.5-2.2c-1.2-1.3-1.7-2.9-1.7-4.7c0.1-1.8,0.8-3.3,2.2-4.5c1.5-1.3,3.2-1.9,5.2-1.6l-1-1.1
				c-0.1-0.2-0.2-0.3-0.2-0.6C86.1,158.4,86.2,158.2,86.4,158.1z M86.2,171.8c1.4,0.1,2.6-0.3,3.6-1.2c1-0.9,1.6-2,1.7-3.4
				c0.1-1.4-0.3-2.6-1.2-3.6c-0.9-1-2.1-1.6-3.4-1.6c-1.4-0.1-2.6,0.3-3.6,1.2c-1,0.9-1.6,2-1.6,3.4c-0.1,1.4,0.3,2.6,1.3,3.6
				C83.7,171.1,84.8,171.7,86.2,171.8z"/>
			<path class="st3" d="M93,155l-2.1,1.6c-0.2,0.1-0.4,0.2-0.6,0.1c-0.2,0-0.4-0.1-0.5-0.3c-0.1-0.2-0.2-0.4-0.2-0.6
				c0-0.2,0.1-0.4,0.3-0.5l2.1-1.6l-2.6-3.5c-0.1-0.2-0.2-0.4-0.1-0.6c0-0.2,0.1-0.4,0.3-0.5c0.2-0.1,0.4-0.2,0.6-0.2
				c0.2,0,0.4,0.1,0.5,0.3l2.6,3.5l2.1-1.5c0.2-0.1,0.4-0.2,0.6-0.2c0.2,0,0.4,0.1,0.5,0.3c0.1,0.2,0.2,0.4,0.1,0.6
				c0,0.2-0.1,0.4-0.3,0.5l-2.1,1.5l6.4,8.6c0.1,0.2,0.2,0.4,0.1,0.6c0,0.2-0.1,0.4-0.3,0.5c-0.2,0.1-0.4,0.2-0.6,0.1
				c-0.2,0-0.4-0.1-0.5-0.3L93,155z"/>
			<path class="st3" d="M105.5,148.7c-0.3,0.2-0.6,0.2-0.9,0c-0.8-0.5-1.6-0.5-2.3,0c-0.5,0.3-0.8,0.7-0.9,1.3
				c-0.1,0.6,0,1.1,0.3,1.6l4.7,7.3c0.1,0.2,0.2,0.4,0.1,0.6c0,0.2-0.2,0.4-0.4,0.5c-0.2,0.1-0.4,0.2-0.6,0.1
				c-0.2,0-0.4-0.2-0.5-0.3l-6.2-9.7c-0.1-0.2-0.2-0.4-0.1-0.6c0-0.2,0.2-0.4,0.3-0.5c0.2-0.1,0.3-0.1,0.5-0.1
				c0.2,0,0.4,0.1,0.5,0.3c0.3-0.7,0.8-1.3,1.4-1.7c0.6-0.4,1.3-0.6,2-0.6c0.8,0,1.4,0.2,2,0.6c0.1,0,0.1,0.1,0.2,0.2
				c0.1,0.2,0.2,0.4,0.1,0.6C105.8,148.4,105.6,148.6,105.5,148.7z"/>
			<path class="st3" d="M117.7,153.1c-1.6,0.8-3.3,1-5,0.4c-1.7-0.5-3-1.6-3.8-3.2l-0.2-0.4c0-0.1-0.1-0.2-0.2-0.4
				c-0.2-0.8-0.4-1.4-0.4-1.8c-0.1-1.3,0.2-2.5,0.8-3.7c0.6-1.1,1.5-2,2.7-2.6c1.5-0.8,3.1-1,4.8-0.6c1.7,0.4,2.9,1.3,3.7,2.8l0,0.1
				c0.1,0.2,0.1,0.4,0.1,0.6c-0.1,0.2-0.2,0.4-0.4,0.5l-9.5,4.9c0.7,1.1,1.6,1.9,2.9,2.3c1.3,0.4,2.5,0.3,3.7-0.4
				c1.1-0.6,1.9-1.5,2.4-2.9c0.1-0.2,0.2-0.4,0.4-0.5c0.2-0.1,0.4-0.1,0.6-0.1c0.2,0.1,0.4,0.2,0.5,0.4c0.1,0.2,0.1,0.4,0.1,0.6
				c-0.2,0.8-0.6,1.5-1.2,2.2C119.1,152.1,118.4,152.7,117.7,153.1z M112.4,142.9c-1,0.5-1.7,1.3-2.2,2.3c-0.5,1-0.6,2-0.4,3.1
				l8.5-4.4c-0.7-0.8-1.7-1.3-2.8-1.5C114.4,142.2,113.4,142.4,112.4,142.9z"/>
			<path class="st3" d="M138.5,144.5c-1.7,0.6-3.4,0.4-5-0.4c-1.6-0.8-2.7-2.1-3.2-3.8c-0.6-1.7-0.4-3.4,0.4-5
				c0.8-1.6,2.1-2.7,3.8-3.3c0.8-0.3,1.7-0.4,2.6-0.3c0.9,0.1,1.7,0.3,2.4,0.7c0.2,0.1,0.3,0.3,0.4,0.5c0.1,0.2,0.1,0.4,0,0.6
				c-0.1,0.2-0.3,0.3-0.5,0.4c-0.2,0.1-0.4,0-0.6,0c-1.4-0.6-2.6-0.7-3.8-0.3c-1.3,0.4-2.3,1.2-2.9,2.5c-0.6,1.2-0.7,2.5-0.3,3.8
				c0.4,1.3,1.2,2.3,2.5,2.9c1.2,0.6,2.5,0.7,3.8,0.3c1.2-0.4,2.1-1.2,2.9-2.5c0.1-0.2,0.3-0.3,0.5-0.4c0.2-0.1,0.4-0.1,0.6,0
				c0.2,0.1,0.3,0.3,0.4,0.5c0.1,0.2,0.1,0.4,0,0.6c-0.3,0.7-0.9,1.4-1.6,2C140,143.8,139.3,144.2,138.5,144.5z"/>
			<path class="st3" d="M147.9,128.3c1.8-0.4,3.4-0.1,5,0.9c1.5,1,2.5,2.4,2.9,4.2c0.4,1.8,0.1,3.4-1,5c-1,1.5-2.4,2.5-4.2,2.9
				c-1.8,0.4-3.5,0.1-5-1c-1.5-1-2.5-2.4-2.9-4.2c-0.4-1.8-0.1-3.5,0.9-5C144.7,129.7,146.1,128.7,147.9,128.3z M146.6,139
				c1.2,0.8,2.4,1,3.8,0.7c1.4-0.3,2.4-1,3.2-2.2c0.8-1.2,1-2.4,0.7-3.8c-0.3-1.4-1-2.4-2.2-3.2c-1.2-0.8-2.4-1-3.8-0.7
				c-1.4,0.3-2.4,1-3.2,2.2c-0.8,1.2-1,2.4-0.7,3.8C144.7,137.2,145.4,138.3,146.6,139z"/>
			<path class="st3" d="M157.6,120.3c0-0.3,0-0.6,0.2-0.9c0.2-0.2,0.5-0.4,0.8-0.4c0.3,0,0.6,0,0.9,0.2s0.4,0.5,0.4,0.8
				c0,0.3,0,0.6-0.2,0.9c-0.2,0.3-0.5,0.4-0.8,0.5c-0.3,0-0.6,0-0.9-0.2S157.6,120.6,157.6,120.3z M159.1,126.8
				c0.1-0.2,0.3-0.3,0.5-0.3c0.2,0,0.4,0,0.6,0.2c0.2,0.1,0.3,0.3,0.3,0.5l1.4,11.4c0,0.2,0,0.4-0.2,0.6c-0.1,0.2-0.3,0.3-0.5,0.3
				c-0.2,0-0.4,0-0.6-0.2c-0.2-0.1-0.3-0.3-0.3-0.5l-1.4-11.4C158.9,127.2,158.9,127,159.1,126.8z"/>
			<path class="st3" d="M166.4,125.6c0.3,0,0.5,0.1,0.6,0.2c0.1,0.2,0.2,0.3,0.2,0.5c0,0.1,0,0.4,0,0.6c0.8-0.8,1.8-1.3,3-1.3
				c1.3-0.1,2.4,0.3,3.3,1.2c0.9,0.9,1.4,1.9,1.5,3.2l0.4,7.7c0,0.2-0.1,0.4-0.2,0.6c-0.1,0.2-0.3,0.2-0.6,0.3
				c-0.2,0-0.4-0.1-0.6-0.2c-0.2-0.1-0.2-0.3-0.3-0.5l-0.4-7.7c0-0.8-0.4-1.5-1-2.1c-0.6-0.6-1.3-0.8-2.2-0.8c-0.8,0-1.5,0.4-2.1,1
				c-0.6,0.6-0.8,1.3-0.8,2.2c0,0,0,0.1,0,0.1c0,0.1,0,0.1,0,0.1l0.4,7.4c0,0.2-0.1,0.4-0.2,0.6c-0.1,0.2-0.3,0.2-0.6,0.3
				c-0.2,0-0.4-0.1-0.6-0.2c-0.2-0.1-0.2-0.3-0.3-0.5l-0.6-11.7c0-0.2,0.1-0.4,0.2-0.6C166,125.7,166.2,125.6,166.4,125.6z"/>
			<path class="st3" d="M180.7,136.4c0.4,0.4,0.9,0.6,1.4,0.7c0.6,0,1.1-0.2,1.5-0.6c0.4-0.4,0.6-0.9,0.7-1.4c0-0.3,0-0.6-0.2-0.8
				c-0.1-0.2-0.3-0.4-0.6-0.6c-0.3-0.2-0.5-0.3-0.7-0.4c-0.2-0.1-0.5-0.2-0.8-0.3c-2.3-0.9-3.4-2.1-3.3-3.8c0-1,0.4-1.9,1.2-2.5
				c0.7-0.7,1.6-1,2.6-1c1,0,1.9,0.4,2.5,1.2c0.7,0.7,1,1.6,1,2.6c0,0.2-0.1,0.4-0.2,0.5c-0.2,0.1-0.4,0.2-0.6,0.2
				c-0.2,0-0.4-0.1-0.5-0.3c-0.1-0.2-0.2-0.3-0.2-0.6c0-0.6-0.2-1.1-0.6-1.5c-0.4-0.4-0.9-0.7-1.4-0.7c-0.6,0-1.1,0.2-1.5,0.6
				c-0.4,0.4-0.6,0.9-0.7,1.4c0,0.5,0.2,0.9,0.5,1.3c0.4,0.3,0.9,0.6,1.4,0.8c0.6,0.2,1.1,0.4,1.7,0.7c0.5,0.3,1,0.7,1.4,1.2
				c0.4,0.5,0.5,1.2,0.5,2c0,1-0.4,1.9-1.2,2.5c-0.7,0.7-1.6,1-2.6,1c-1,0-1.9-0.4-2.5-1.2c-0.7-0.7-1-1.6-1-2.6
				c0-0.2,0.1-0.4,0.3-0.5c0.2-0.1,0.3-0.2,0.6-0.2c0.2,0,0.4,0.1,0.6,0.3c0.1,0.2,0.2,0.3,0.2,0.6
				C180.1,135.4,180.3,135.9,180.7,136.4z"/>
		</g>
	</g>
</g>
</svg>
