<?xml version="1.0" encoding="UTF-8"?>
<!-- Generator: Adobe Illustrator 19.1.1, SVG Export Plug-In . SVG Version: 6.00 Build 0) -->
<svg xmlns="http://www.w3.org/2000/svg" xmlns:xlink="http://www.w3.org/1999/xlink" x="0px" y="0px" viewBox="0 0 600 600" style="enable-background:new 0 0 600 600;" xml:space="preserve"> <style type="text/css"> .st35{opacity:0.5;fill:#FFFFFF;} .st36{fill:#FFFFFF;} </style> <g id="BLANC_x2A_"> <g> <circle class="st35" cx="207.3" cy="344.9" r="120"/> <g> <path id="Points_11_" class="st35" d="M242.8,333.7c7.3-17.1,24-34,50.5-54.4l-2.2-2.8c-27.3,21-47.4,31.9-64.8,34.8 c-9.4-24.9-5.2-63.8,3.2-128.3l-2.4-0.3c-8.5,65-14.5,103.7-30.4,125.3c-16.6-6.8-33.7-22.7-55.5-51l-2.8,2.2 c20.7,27,32.7,47.9,35.3,66.5c-24.8,9.7-63.8,5.9-128.8-2.6l-0.3,2.4c64.6,8.4,103.2,14.5,124.8,29.8 c-7.6,16.8-24.3,33.6-50.4,53.7l2.2,2.8c27.8-21.4,48.2-32.3,65.8-34.9c10.5,24.6,6.5,63.5-2.1,129.8l2.4,0.3 c8.6-65.8,14.5-104.5,30.7-125.6c16,7.3,32.5,23,53.3,50l1.9-1.1l0.6,1.9l0.2-1.8l0.5-1.1c-19.8-25.8-31.7-46.1-35.1-64.1 c24.8-9.9,64.1-5.9,130.5,2.8l0.3-2.4C303.2,356.8,264,350.3,242.8,333.7z M263.7,299.9c-11.2,10.9-19.1,21.1-23.8,31.4 c-5.2-4.7-9.2-10.1-12.1-16.6C238.5,312.8,250.1,308,263.7,299.9z M238.9,333.4c-4.3,10.2-5.4,20.5-3.5,31.6 c-6.5,3.2-12,7.4-16.7,12.9c-5.4-2.4-10.8-4-16.3-4.7c-4.9-0.6-9.8-0.6-14.9,0c-3.5-6.9-8.2-12.7-14.3-17.6 c4.1-9.4,5.5-18.8,4.3-28.9c7.7-3.5,14-8.4,19.4-14.9c4.4,1.7,8.7,2.8,13.2,3.4c5.1,0.7,10.3,0.6,15.7-0.2 C228.8,322.3,233.1,328.3,238.9,333.4z M220,247.6c-2.1,28.1-1.3,48.6,4.3,64.1c-4.8,0.6-9.4,0.6-13.9,0 c-3.8-0.5-7.6-1.4-11.4-2.8C208.6,295.4,214.7,275.6,220,247.6z M161.9,286.6c11.7,12,22.2,19.8,32.7,24.3 c-4.9,5.8-10.6,10.2-17.5,13.4C175.3,312.8,170.2,300.5,161.9,286.6z M109.3,332.7c28.6,2.1,49.3,1.3,64.8-4.6 c0.9,8.8-0.4,17.1-3.8,25.4C156.8,344,137.2,337.9,109.3,332.7z M148.6,388.4c11.1-10.8,18.9-20.9,23.7-31.1 c5.7,4.5,10,9.8,13.2,16.1C174.5,375.2,162.6,380.1,148.6,388.4z M194.4,443.4c2.2-29.8,1.2-51.1-5.4-66.8 c4.5-0.5,8.9-0.5,13.1,0.1c4.8,0.6,9.5,1.9,14.3,4C206.2,394.1,199.9,414.3,194.4,443.4z M250.4,401.7 c-10.7-11-20.5-18.5-30.1-23.1c4.4-5,9.4-8.9,15.4-11.8C237.8,377.5,242.8,388.9,250.4,401.7z M239.1,363.3 c-1.5-9.6-0.6-18.5,2.8-27.4c13.5,10.4,33.8,16.9,63.1,22.3C275.8,356.1,254.8,357,239.1,363.3z"/> <path id="W_11_" class="st36" d="M64.5,324.9c-1.2,9.4-9.9,16.1-19.3,14.8c-9.4-1.2-16.1-9.9-14.8-19.3 c1.2-9.4,9.9-16.1,19.3-14.8C59.1,306.8,65.8,315.4,64.5,324.9z"/> <path id="S_11_" class="st36" d="M205.4,508c-1.2,9.4-9.9,16.1-19.3,14.8c-9.4-1.2-16.1-9.9-14.8-19.3 c1.2-9.4,9.9-16.1,19.3-14.8C200,489.9,206.6,498.5,205.4,508z"/> <path id="E_11_" class="st36" d="M388.5,367.1c-1.2,9.4-9.9,16.1-19.3,14.8c-9.4-1.2-16.1-9.9-14.8-19.3 c1.2-9.4,9.9-16.1,19.3-14.8C383.1,349,389.7,357.7,388.5,367.1z"/> <path class="st36" d="M272.5,179.4c-12-14.2-19.1-31.7-22.6-49.9c-3-15.8,1-31.1-0.1-46.4c-0.6-8.6-12.9-7.5-14.2,0.1 c-3.4,0.7-6.7,3.4-6.6,7.8c0.2,25.3-16.7,57.6-38.4,70c-7.1,4.1-3.5,15.2,3.2,14.1c0.7,2.3,2.5,4.2,5.7,4.5 c5.3,0.5,10.4,1.6,15.7,2.4c5.7,0.9,9.3-4.9,7.6-9.9c-1.9-5.5,18.7-7.3,13.1,3.9c-2.1,4.3,1.3,9.3,5.7,9.9 c7.6,1.1,14.9,2.1,22.3,4.4C270.3,192.3,277.6,185.5,272.5,179.4z M208.6,166.4c-0.3-0.1-0.7-0.1-1-0.1c0.5-0.4,0.9-0.8,1.4-1.2 C208.9,165.5,208.7,165.9,208.6,166.4z M235.3,127.7c0.5,3.3,1,6.6,1.6,9.9c0.5,2.6,1.1,5.1,1.8,7.7c-0.2-0.1-0.4-0.1-0.7-0.2 c-0.1,0-0.3,0-0.5,0c-0.3-0.1-0.5-0.2-0.8-0.2c-3.1-0.5-6.5-0.9-9.9-0.7C230,138.9,232.9,133.4,235.3,127.7z M242.9,157.8 c0,0.1,0,0.1,0.1,0.2C242.9,157.9,242.8,157.9,242.9,157.8C242.8,157.8,242.8,157.8,242.9,157.8z"/> </g> <g> <g> <path class="st36" d="M209.6,388.6c5.1-4.5,8.9-10.1,11.5-16.8c2.6-6.7,3.5-15,2.8-24.9c-0.6-8.5-2.9-15.6-6.9-21.2 c-4-5.6-8.9-10-14.5-13.4c-5.6-3.4-11.6-5.8-17.8-7.3c-6.3-1.5-11.9-2.5-17-3c2.3-8.3,6.4-15.5,12.1-21.3 c5.8-5.9,13-9.4,21.6-10.6c4-0.6,7.2,0.1,9.6,1.8c2.4,1.8,3.9,4,4.7,6.5c0.7,2.5,0.6,4.9-0.4,7.2c-1,2.3-2.9,3.6-5.7,4 c-0.7,0.1-1.6-0.2-2.6-0.8c-1-0.6-1.8-1.5-2.5-2.7c-0.7-1.2-1-2.5-1-3.9c0-1.4,0.8-2.9,2.2-4.5c0.4-0.5,0.5-1.1,0.3-1.7 c-0.2-0.7-0.5-0.8-1.1-0.4c-1.7,0.8-2.8,2.2-3.4,4c-0.6,1.8-0.6,3.7-0.1,5.6c0.5,1.9,1.5,3.5,3,4.9c1.5,1.4,3.4,2.1,5.6,2.1 c3.5,0,5.9-1.4,7.4-4.2c1.4-2.8,1.8-5.8,1-9c-0.8-3.2-2.6-6.1-5.6-8.5c-3-2.5-7.1-3.4-12.3-2.8c-5.4,0.6-10.3,2-14.8,4.1 c-4.5,2.1-8.5,4.8-12.1,7.9c-3.6,3.1-6.7,6.6-9.3,10.4c-2.7,3.8-4.9,7.6-6.8,11.5c-8.6,0.3-17.3,2-26.1,5.2 c-8.8,3.2-16.7,7.5-23.6,12.9c-7,5.4-12.5,11.8-16.6,19.1c-4.1,7.3-5.9,15.2-5.3,23.6c0.4,4.8,1.7,8.2,4.1,10.2 c2.4,2,5,2.9,7.9,2.8c2.9-0.2,5.5-1.3,7.8-3.2c2.4-2,3.7-4.5,4.1-7.6c0.4-1.7-0.1-2.8-1.5-3.2c-1.3-0.4-2.2-0.1-2.7,1.1 c-0.4,3.4-1.5,5.8-3.2,7.4c-1.7,1.5-3.5,2.2-5.4,2c-1.9-0.2-3.7-1.1-5.3-2.8c-1.6-1.7-2.5-4-2.6-7c-0.4-8.3,1.4-15.9,5.4-22.9 c4-7,9.3-13,15.9-18c6.6-5,13.9-8.9,22.1-11.7c8.2-2.8,16.2-4.2,24-4.3c-2.3,8.3-3.9,16.4-4.8,24.3c-0.9,7.8-1.3,15.7-1.1,23.7 c0.1,7.9,0.6,16,1.5,24.3c0.8,8.3,1.8,17,3,26.3c-4.1,0.1-7.3-0.4-9.8-1.6c-2.4-1.2-4.3-2.7-5.5-4.5c-1.2-1.8-1.9-3.6-2.1-5.4 c-0.2-1.8-0.1-3.3,0.2-4.6c0.6-1.4,0.3-2.2-0.8-2.3c-1.1-0.1-1.7,0.6-2,2c-0.3,3.1,0,5.8,0.9,8.3c0.9,2.4,2.3,4.5,4.2,6.2 c1.8,1.7,4.1,3,6.8,3.9c2.7,0.9,5.6,1.5,8.6,1.6c0.6,5.1,1,11.2,1.4,18.4c0.4,7.2,0.4,14.8-0.1,22.7c-0.5,7.9-1.5,15.9-2.9,23.9 c-1.5,8-3.7,15.3-6.8,21.8c-3.1,6.6-7.1,12.1-12.1,16.7c-5,4.6-11.1,7.3-18.4,8.3c-9.8,1.4-17.6-0.5-23.4-5.5 c-5.8-5-9.3-12.1-10.5-21.1c-0.5-3.9-0.7-8.2-0.4-13.1c0.3-4.9,1.2-9.6,2.8-14.1c1.6-4.5,3.8-8.5,6.7-11.9 c2.9-3.4,6.8-5.5,11.7-6.2c3.4-0.5,5.9,0.7,7.5,3.5c1.6,2.8,2.3,6,2.2,9.6c-0.1,3.6-1,6.9-2.8,9.9c-1.8,3-4.3,4.5-7.7,4.4 c-1.5-0.2-2.2,0.2-2.1,1.3c0.2,1.1,1,1.6,2.5,1.4c3.2-0.1,5.8-1.1,7.8-2.9c2-1.8,3.5-4,4.3-6.6c0.8-2.6,1.1-5.3,0.9-8.2 c-0.2-2.8-0.9-5.5-1.9-7.9c-1-2.4-2.4-4.4-4.2-5.8c-1.8-1.4-3.9-1.9-6.5-1.6c-5.3,0.7-9.8,2.8-13.4,6.3 c-3.6,3.5-6.5,7.5-8.6,12.2c-2.1,4.7-3.5,9.7-4.1,15.1c-0.6,5.4-0.6,10.3,0,14.8c0.4,4.9,1.7,9.4,3.9,13.4 c2.2,4,5.1,7.3,8.8,9.9c3.6,2.6,7.8,4.4,12.5,5.5c4.7,1.1,9.7,1.3,15.1,0.5c9.7-1.3,17.7-4.1,24.1-8.1c6.4-4.1,11.6-9.1,15.6-15 c4-5.9,7-12.6,8.8-20c1.8-7.4,3-15.1,3.6-23.2c0.5-8.1,0.6-16.3,0.2-24.7c-0.4-8.3-0.8-16.4-1.3-24.2c8-2,15.6-4.4,22.7-7.2 C198.5,396.8,204.5,393.1,209.6,388.6z M168.5,402.7c-0.8-7.8-1.6-15.7-2.4-24c-0.8-8.2-1.5-16.5-2-24.8 c-0.5-8.3-0.5-16.6-0.2-24.7c0.4-8.1,1.5-16.1,3.3-23.7c4.9,0.5,9.9,1.8,15.1,3.9c5.1,2.1,9.9,5,14.3,8.7c4.4,3.7,8,8.3,11,13.9 c3,5.6,4.8,12,5.5,19.3c0.5,6.1-0.4,12.1-3,17.9c-2.5,5.8-5.9,11.1-10.3,15.8c-4.3,4.8-9.3,8.7-14.8,11.8 C179.5,400,174,402,168.5,402.7z"/> <path class="st36" d="M405.9,351.5c2.7-0.4,4.9-1.9,6.7-4.6c1.8-2.7,2.5-5.3,2-7.8c-0.3-1.2-0.9-2.2-1.8-3.2 c-0.9-0.9-2.1-1.3-3.8-1.1c-2.1,0.3-3.8,1.1-5.1,2.4c-1.3,1.3-2.3,2.7-3,4.3c-0.7,1.5-1,3.1-1.1,4.7c0,1.6,0.3,2.8,1.1,3.6 C402.2,351.3,403.9,351.8,405.9,351.5z"/> <path class="st36" d="M568.7,366.7c-1,0.1-1.6,0.1-1.9,0.2c-1.6,0.7-4.5,2-8.9,4c-4.3,2-9.2,4.2-14.5,6.8 c-5.3,2.6-10.7,5.2-16.1,8c-5.4,2.8-10,5.4-13.8,7.7c-5.2-1.5-10.2-3.1-14.9-4.6c-4.8-1.5-8.9-3.1-12.4-4.6 c-3.5-1.6-6.3-3.1-8.3-4.6c-2-1.5-2.7-2.9-2.3-4.2c0.5-1.7,0.5-3.1,0-4.2c-0.5-1.1-1.3-1.7-2.2-2c-0.9-0.2-2,0-3.1,0.8 c-1.1,0.8-1.8,2.1-2.1,4.2c-0.1,1.7,0.3,3.1,1.1,4.4c0.8,1.3,1.8,2.3,3.1,3.2c0.2,0.1,0.4,0.3,0.7,0.4c-0.6,2.3-1.2,5.3-2,9 c-1,4.9-2.2,10.4-3.7,16.5c-1.5,6.1-3.2,12.4-5,18.9c-1.8,6.5-3.9,12.4-6.2,17.8c-2.3,5.4-4.8,9.9-7.4,13.5 c-2.7,3.6-5.6,5.7-8.7,6.1c-4.4,1.1-7.9,0.6-10.6-1.4c-2.7-2-4.8-4.9-6.3-8.8c-1.5-3.9-2.6-8.5-3.2-14c-0.6-5.4-1-11.1-1.1-16.9 c-0.1-5.8-0.2-11.6-0.1-17.3c0-5.8-0.1-10.9-0.3-15.4c-0.3-4.5-0.8-8.2-1.7-11.1c-0.9-2.9-2.3-4.4-4.3-4.6 c-1.7-0.4-3.1-0.1-4.2,0.9c-1.1,1-2,2.4-2.7,4.3c-0.7,1.9-1.2,4.1-1.5,6.7c-0.3,2.5-0.4,5.1-0.3,7.6c0.2,2.9,0.4,5.7,0.6,8.5 c-1.7,4.8-3.6,9.9-5.7,15.3c-2.3,5.8-4.8,11.6-7.6,17.4c-2.7,5.8-5.6,11.3-8.6,16.3c-3,5-6.2,9.3-9.5,12.8 c-3.3,3.5-6.6,5.8-9.9,6.8c-2.1,0.3-3.7,0.1-4.8-0.5c-1.1-0.6-2-1.5-2.6-2.7c-0.6-1.2-1-2.6-1.3-4.1c-0.2-1.6-0.4-3.2-0.7-4.8 c0.2-9.1,1.1-17.5,2.6-25.1c1.5-7.6,2.4-14.6,2.7-21c0-0.1-0.2-0.5-0.6-1.2c-0.4-0.6-0.9-1.2-1.6-1.8c-0.7-0.6-1.5-1.1-2.4-1.5 c-0.9-0.4-1.9-0.5-2.9-0.4c-1.5-0.1-3.5-0.1-5.9-0.1c-2.4,0-4.9,0-7.5-0.1c-2.6-0.1-5.2-0.3-7.8-0.6c-2.6-0.3-4.8-0.9-6.6-1.7 c0.3-3.1-0.1-5.5-1.2-7.3c-1.2-1.8-2.5-3.1-4-3.8c-1.5-0.7-3-0.9-4.4-0.6c-1.4,0.3-2.3,0.9-2.6,1.8c-0.9,3.3-0.6,5.8,0.8,7.6 c0.8,0.9,1.8,1.8,3,2.5c-0.6,2.3-1.2,4.7-1.8,7.4c-1.2,5.2-2.6,10.6-4.1,16.3c-1.5,5.7-3,11.5-4.6,17.3 c-1.6,5.8-3.4,11.2-5.3,16.1c-1.9,4.9-3.8,9.1-5.9,12.5c-2,3.5-4.2,5.7-6.4,6.8c-4.5,2.3-7.9,1-10.1-3.9 c-2.2-4.9-4-13.7-5.5-26.4c-0.6-6.1-1.1-13.2-1.6-21.2c-0.5-8-1.2-16.7-2-25.9c-0.4-1.9-1.1-3.3-2.1-4c-1-0.8-2.1-1.1-3.2-1 c-1.1,0.1-2.2,0.6-3.3,1.6c-1.1,1-1.8,2.2-2.2,3.6c-3.8-2.5-7.3-4.4-10.4-5.7c-3.1-1.3-6.9-1.6-11.4-1c-5.9,0.8-11,3.1-15.2,6.9 c-4.2,3.8-7.5,8.4-10,13.9c-2.5,5.5-4.1,11.5-4.9,18c-0.8,6.5-0.6,12.9,0.4,19.1c0.6,4.5,1.9,8.6,3.8,12.3 c1.9,3.8,4.3,7,7.1,9.7c2.9,2.7,6.2,4.7,10,6c3.8,1.3,8,1.6,12.6,1c5.6-0.8,10.6-2.7,14.8-5.7c4.2-3,8.2-6.5,12-10.5 c0.4,2.1,1,4.3,1.7,6.8c0.7,2.5,1.6,4.7,2.7,6.7c1.1,2,2.5,3.5,4.3,4.7c1.8,1.2,4,1.6,6.9,1.2c3.5-0.6,6.6-2.2,9.3-4.8 c2.7-2.6,5-5.6,7.1-9.2c2.1-3.5,3.8-7.4,5.3-11.6c1.5-4.2,2.8-8.4,4-12.6c1.2-4.2,2.3-8,3.3-11.6c0.9-3.5,1.9-6.5,3-8.9 c1.8-6.9,3.1-12.3,3.9-16.1c0.5-2.4,0.9-4.4,1.1-6.1c0.1,0,0.2,0.1,0.3,0.1c3,0.9,6.7,1.6,11,2.1c4.3,0.5,8.9,1.1,13.9,1.9 l-0.3,45c0,7.6,1.8,12.8,5.5,15.7c3.7,2.9,8.1,4,13.3,3.3c3.3-0.2,6.7-1.8,10.2-5.1c3.5-3.2,6.9-7.3,10.2-12.3 c3.3-5,6.5-10.6,9.5-16.8c3-6.2,5.7-12.3,8.2-18.3c1.7-4.1,3.2-8.1,4.6-12c0.3,3.7,0.6,7.5,0.9,11.2c0.8,9.4,2.3,17.6,4.7,24.8 c2.4,7.2,5.8,12.8,10.3,16.8c4.5,4.1,10.7,5.5,18.5,4.2c3.2,0.2,6.3-1.2,9.2-4.2c2.9-3,5.7-6.9,8.2-11.7 c2.6-4.8,5-10.3,7.1-16.5c2.2-6.2,4-12.5,5.6-19c1.6-6.4,3-12.7,4.2-18.9c1-5.2,1.7-9.9,2.2-14.1c0.2,0.1,0.4,0.2,0.6,0.3 c1.4,0.6,2.8,1.2,4.1,1.6c1.3,0.6,3.5,1.4,6.5,2.6c3,1.2,6.2,2.3,9.4,3.5c3.3,1.1,6.2,2.2,8.8,3.1c2.6,0.9,4.2,1.4,4.6,1.5 c-4.5,3.4-7.9,7.3-10.2,11.7c-2.3,4.5-3.5,9.1-3.9,13.8c-0.3,4.7,0.3,9.3,1.8,13.7c1.5,4.4,3.8,8.3,6.8,11.5 c3,3.3,6.7,5.8,11,7.5c4.3,1.7,9.1,2.3,14.3,1.5c8.6-1.2,14.6-4.8,18-10.7c3.4-5.9,4.1-13.7,2-23.2c-0.9-4.1-2.6-7.8-5-11 c-2.5-3.2-5.3-6-8.5-8.3c-3.2-2.4-6.6-4.2-10.1-5.6c-3.5-1.4-6.8-2.4-9.7-2.8c2.5-1.7,6.3-3.9,11.3-6.7 c5.1-2.8,10.3-5.4,15.8-8.1c5.5-2.7,10.6-5.1,15.5-7.3c4.8-2.2,8.4-3.7,10.7-4.4C570,367,569.7,366.6,568.7,366.7z M262,467.4 c-1.7,2.2-3.7,4.2-6,6.1c-2.3,1.8-4.8,3.4-7.4,4.7c-2.6,1.3-4.9,2-6.8,2.3c-3.9,0.5-7.1-0.3-9.8-2.6c-2.7-2.3-4.8-5.1-6.5-8.5 c-1.7-3.4-3-7-4-10.8c-1-3.8-1.6-7-2-9.5c-0.5-3.6-0.7-7.9-0.7-13c0-5.1,0.7-10,1.9-14.9c1.2-4.9,3.2-9.1,5.8-12.8 c2.7-3.7,6.4-5.9,11.1-6.5c4.3-0.6,8.2,0.1,11.8,2.2c3.5,2.1,6.4,5,8.6,8.8c1.1,4.8,2,9,2.7,12.3c0.7,3.4,1.3,7.2,1.9,11.3 c0.6,4.3,1,8.2,1.3,11.6c0.3,3.4,0.5,7.7,0.7,12.6C264.6,462.9,263.7,465.2,262,467.4z M521,400.9c2.6,2.1,5,4.5,7,7.2 c2,2.7,3.7,5.7,5.1,8.7c1.3,3.1,2.2,6,2.6,8.8c0.3,2.2,0.6,4.9,0.9,7.9c0.3,3.1,0.2,6-0.1,8.9c-0.4,2.9-1.2,5.3-2.5,7.4 c-1.3,2.1-3.3,3.2-6,3.4c-4.5,0.5-8.5-0.2-12-2.1c-3.5-1.9-6.4-4.4-8.8-7.7c-2.4-3.3-4.1-7.1-5.2-11.3 c-1.1-4.2-1.5-8.5-1.1-12.9c0.4-4.4,1.5-8.5,3.4-12.5c1.9-4,4.7-7.3,8.4-10.1C515.6,397.4,518.4,398.9,521,400.9z"/> </g> <path class="st36" d="M80.3,373.3C80.3,373.3,80.2,373.3,80.3,373.3c-0.3,0.7-0.5,1.4-0.7,2.3c-0.2,0.8-0.6,1.6-0.9,2.3 c-0.4,0.7-0.9,1.3-1.5,1.9c-0.6,0.5-1.3,0.8-2.3,0.8c-0.7,0-1.2-0.2-1.7-0.6c-0.4-0.4-0.8-0.9-1-1.4c-0.3-0.6-0.4-1.2-0.5-1.8 c-0.1-0.6-0.2-1.2-0.2-1.8c0,0,0-0.1,0-0.2c0-0.1,0-0.2,0-0.2c0.3,0,0.6-0.1,1-0.1c0.4,0,0.7-0.1,1.1-0.2 c0.3-0.1,0.6-0.3,0.8-0.5c0.2-0.2,0.4-0.5,0.4-1c0-0.5-0.2-0.8-0.5-0.9s-0.6-0.3-1-0.3c-1,0-1.8,0.3-2.4,0.9 c-0.3,0.3-0.5,0.8-0.7,1.3c-0.1,0-0.3,0-0.4,0c-0.4,0-0.7-0.1-1-0.2c-0.3-0.1-0.7-0.3-1.1-0.5c-0.4-0.2-0.8-0.5-1.3-0.9 c0,0.1,0,0-0.1-0.3c0-0.3-0.1-0.7-0.1-1.3c-0.1-0.5-0.1-1.2-0.2-1.9c-0.1-0.7-0.2-1.4-0.3-2.2c-0.1-0.7-0.3-1.5-0.5-2.1 s-0.4-1.3-0.7-1.8c-0.3-0.5-0.5-0.9-0.9-1.1c-0.3-0.2-0.7-0.3-1.1-0.1c-0.5,0.2-0.8,0.5-0.9,1c-0.2,0.5-0.2,1-0.2,1.6 c0,0.6,0.2,1.3,0.4,2c0.2,0.7,0.5,1.4,0.8,2.1c0.3,0.7,0.7,1.4,1.1,2c0.4,0.6,0.8,1.2,1.3,1.7l0.2,2.8c-0.3-0.5-0.6-0.8-0.9-1.2 c-0.4-0.3-0.7-0.6-1.1-0.8c-0.4-0.2-0.8-0.3-1.1-0.3c-0.4,0-0.7,0-1,0.2c-0.5,0.3-1,0.7-1.3,1.2s-0.6,1-0.8,1.6 c-0.2,0.6-0.3,1.2-0.3,1.9c0,0.7,0.1,1.3,0.3,1.9c0.2,0.6,0.5,1.1,0.8,1.6c0.4,0.5,0.9,0.9,1.5,1.1c0.7,0.3,1.4,0.3,2,0.2 c0.6-0.1,1.2-0.4,1.8-1c0.2-0.2,0.3-0.4,0.4-0.6s0.3-0.5,0.4-0.8c0,0.3,0,0.7,0.1,1c0,0.4,0.1,0.7,0.3,0.9 c0.1,0.3,0.3,0.5,0.6,0.7c0.2,0.2,0.5,0.2,0.9,0.2c0.1,0,0.1,0,0.2-0.1c0-0.1,0.1-0.1,0.1-0.2c0-0.1,0-0.1-0.1-0.2 c0,0-0.1-0.1-0.2,0c-0.3,0.1-0.5,0-0.7-0.4c-0.2-0.3-0.3-0.8-0.4-1.3c-0.1-0.5-0.1-1.2-0.1-1.9c0-0.7,0-1.4,0-2.1 c0-0.7,0-1.4,0-2.1c0-0.7,0-1.2,0-1.6c0.2,0.2,0.5,0.4,0.8,0.6c0.3,0.2,0.7,0.4,1.1,0.6c0.4,0.2,0.8,0.3,1.3,0.4 c0.2,0,0.3,0,0.5,0c-0.1,0.3-0.1,0.6-0.1,1c0,0.6,0.1,1.3,0.2,2.1c0.2,0.8,0.4,1.5,0.8,2.2c0.3,0.7,0.8,1.2,1.3,1.7 c0.5,0.5,1.1,0.7,1.9,0.7c0.7,0,1.3-0.1,1.8-0.3c0.5-0.3,1-0.6,1.5-1.1c0.4-0.5,0.8-1,1.1-1.6c0.3-0.6,0.6-1.2,0.9-1.8 c0.2-0.6,0.4-1.2,0.6-1.8c0.1-0.6,0.3-1.1,0.3-1.5C80.4,373.4,80.3,373.3,80.3,373.3z M71.8,373.2c0.1-0.3,0.2-0.5,0.4-0.7 c0.2-0.2,0.4-0.4,0.6-0.5s0.5-0.2,0.8-0.2c0.3,0,0.5,0.1,0.6,0.3c0.1,0.2,0.2,0.4,0.2,0.7c0,0.3-0.1,0.6-0.3,0.8 c-0.2,0.2-0.4,0.3-0.7,0.3c-0.3,0.1-0.6,0.1-0.9,0.1c-0.3,0-0.6,0-0.8,0C71.6,373.7,71.7,373.4,71.8,373.2z M63.3,368.2 c-0.5-1-0.9-2-1.1-2.9c-0.2-0.9-0.3-1.7-0.3-2.4c0.1-0.7,0.3-1.1,0.7-1.3c0.2,0,0.4,0.2,0.6,0.6c0.2,0.4,0.4,1,0.5,1.7 c0.2,0.7,0.3,1.4,0.5,2.2s0.3,1.6,0.4,2.3c0.1,0.7,0.2,1.3,0.3,1.9c0.1,0.5,0.1,0.8,0.2,0.9C64.4,370.3,63.8,369.3,63.3,368.2z M65.2,378.8c-0.2,0.8-0.4,1.5-0.6,1.9c-0.2,0.4-0.5,0.7-0.8,0.8c-0.3,0.2-0.6,0.3-0.9,0.3c-0.3,0-0.6-0.1-1-0.2 c-0.3-0.2-0.6-0.4-0.9-0.7c-0.4-0.4-0.6-0.9-0.8-1.6c-0.2-0.6-0.2-1.3-0.2-2.1c0-0.7,0.1-1.4,0.3-2.1s0.4-1.3,0.7-1.7 c0.2-0.4,0.5-0.6,0.8-0.7c0.3-0.1,0.6-0.1,0.9,0c0.3,0.1,0.6,0.3,0.9,0.5c0.3,0.2,0.6,0.5,0.8,0.8c0.2,0.3,0.4,0.6,0.6,0.9 c0.2,0.3,0.3,0.6,0.3,0.9C65.4,377,65.3,378,65.2,378.8z"/> <g id="aux..._10_"> <path class="st36" d="M70.9,304.3c0.1-0.2,0.2-0.4,0.4-0.5c0.2-0.1,0.4-0.1,0.6-0.1l11.2,2.9c0.2,0.1,0.4,0.2,0.5,0.4 c0.1,0.2,0.1,0.4,0.1,0.6c-0.1,0.2-0.2,0.4-0.4,0.5c-0.2,0.1-0.4,0.1-0.6,0.1l-1.5-0.4c1.2,1.6,1.5,3.4,1,5.4 c-0.4,1.7-1.4,3.1-3,4c-1.6,0.9-3.2,1.2-4.9,0.7c-1.7-0.4-3.1-1.4-4-3c-0.9-1.6-1.2-3.2-0.7-5c0.5-2,1.7-3.4,3.5-4.2l-1.5-0.4 c-0.2-0.1-0.4-0.2-0.5-0.4C70.9,304.7,70.9,304.5,70.9,304.3z M78.4,315.8c1.2-0.7,1.9-1.7,2.3-3c0.3-1.3,0.2-2.6-0.5-3.8 c-0.7-1.2-1.7-1.9-3-2.3c-1.3-0.3-2.6-0.2-3.8,0.5c-1.2,0.7-1.9,1.7-2.3,3c-0.3,1.3-0.2,2.6,0.5,3.7c0.7,1.2,1.7,1.9,3,2.3 C76,316.7,77.2,316.5,78.4,315.8z"/> <path class="st36" d="M76,291.2c-0.1-0.2-0.1-0.4,0-0.6c0.1-0.2,0.2-0.3,0.4-0.4c0.2-0.1,0.4-0.1,0.6,0l6.7,2.5 c1.3,0.5,2.2,1.3,2.8,2.6c0.6,1.2,0.6,2.5,0.1,3.8c-0.5,1.3-1.4,2.2-2.6,2.8c-1.3,0.6-2.5,0.6-3.8,0.1l-6.7-2.5 c-0.2-0.1-0.4-0.2-0.4-0.4c-0.1-0.2-0.1-0.4,0-0.6c0.1-0.2,0.2-0.4,0.4-0.5c0.2-0.1,0.4-0.1,0.6,0l6.7,2.5 c0.9,0.3,1.7,0.3,2.6-0.1c0.8-0.4,1.4-1,1.8-1.9c0.3-0.9,0.3-1.7-0.1-2.6c-0.4-0.9-1-1.4-1.9-1.8l-6.7-2.5 C76.2,291.5,76.1,291.4,76,291.2z"/> <path class="st36" d="M81.8,278c0.1-0.2,0.2-0.3,0.5-0.4c0.2-0.1,0.4-0.1,0.6,0c0.2,0.1,0.3,0.2,0.4,0.4l2.7,6l6.7-1.4 c0.2-0.1,0.3,0,0.5,0.1c0.2,0.1,0.3,0.2,0.4,0.5c0.1,0.2,0.1,0.4,0,0.6c-0.1,0.2-0.3,0.4-0.5,0.4l-6.5,1.4l2.9,6 c0.1,0.2,0.1,0.4,0,0.7c-0.1,0.2-0.2,0.3-0.5,0.4c-0.2,0.1-0.4,0.1-0.6,0c-0.2-0.1-0.3-0.2-0.4-0.4l-3-6.2l-6.4,1.6 c-0.2,0.1-0.4,0-0.5-0.1c-0.2-0.1-0.3-0.2-0.4-0.4c-0.1-0.2-0.1-0.4,0-0.6c0.1-0.2,0.3-0.4,0.5-0.4l6.2-1.5l-2.6-5.8 C81.6,278.4,81.7,278.2,81.8,278z"/> <path class="st36" d="M94.9,257.7c0.1-0.2,0.3-0.3,0.5-0.3c0.2,0,0.4,0,0.6,0.1l14.3,10.3c0.2,0.1,0.3,0.3,0.3,0.5 c0,0.2,0,0.4-0.1,0.6c-0.1,0.2-0.3,0.3-0.5,0.3c-0.2,0-0.4,0-0.6-0.1l-6.1-4.4c0.5,1.9,0.1,3.7-1,5.4c-1.1,1.5-2.5,2.3-4.3,2.6 c-1.8,0.3-3.4-0.1-4.9-1.1c-1.5-1.1-2.3-2.5-2.6-4.3c-0.3-1.8,0.1-3.4,1.1-4.9c1.2-1.6,2.8-2.5,4.8-2.7l-1.2-0.9 c-0.2-0.1-0.3-0.3-0.3-0.5C94.7,258,94.8,257.8,94.9,257.7z M97.6,271c1.4-0.2,2.4-0.9,3.2-2c0.8-1.1,1.1-2.3,0.9-3.7 c-0.2-1.4-0.9-2.4-2-3.2c-1.1-0.8-2.3-1.1-3.7-0.9c-1.3,0.2-2.4,0.9-3.2,2c-0.8,1.1-1.1,2.3-0.9,3.7c0.2,1.3,0.9,2.4,2,3.2 C95.1,271,96.3,271.3,97.6,271z"/> <path class="st36" d="M104.4,247.3c0-0.2,0-0.4,0.2-0.6c0.1-0.2,0.3-0.2,0.6-0.2c0.2,0,0.4,0.1,0.6,0.2l5.3,4.8 c1,0.9,1.6,2.1,1.6,3.4c0.1,1.4-0.3,2.6-1.3,3.6c-0.9,1-2.1,1.6-3.4,1.6c-1.4,0.1-2.6-0.4-3.6-1.3L99,254 c-0.2-0.1-0.3-0.3-0.3-0.6c0-0.2,0-0.4,0.2-0.6c0.2-0.2,0.3-0.3,0.6-0.3c0.2,0,0.4,0.1,0.6,0.2l5.3,4.8c0.7,0.6,1.5,0.9,2.4,0.9 c0.9,0,1.7-0.4,2.3-1.1c0.6-0.7,0.9-1.5,0.9-2.4c0-0.9-0.4-1.7-1.1-2.3l-5.3-4.8C104.5,247.7,104.4,247.5,104.4,247.3z"/> <path class="st36" d="M116.7,235.2c0.2-0.1,0.4-0.2,0.6-0.2c0.2,0,0.4,0.1,0.5,0.3l7.7,8.6c0.1,0.2,0.2,0.4,0.2,0.6 c0,0.2-0.1,0.4-0.3,0.5c-0.2,0.2-0.4,0.2-0.6,0.2c-0.2,0-0.4-0.1-0.5-0.3l-1-1.1c0.1,2-0.7,3.7-2.2,5c-1.3,1.2-2.9,1.7-4.7,1.6 c-1.8-0.1-3.3-0.8-4.5-2.2c-1.2-1.3-1.7-2.9-1.7-4.7c0.1-1.8,0.8-3.3,2.2-4.5c1.5-1.3,3.2-1.9,5.2-1.6l-1-1.1 c-0.1-0.2-0.2-0.3-0.2-0.6C116.4,235.5,116.5,235.4,116.7,235.2z M116.4,248.9c1.4,0.1,2.6-0.3,3.6-1.2c1-0.9,1.6-2,1.7-3.4 c0.1-1.4-0.3-2.6-1.2-3.6c-0.9-1-2.1-1.6-3.4-1.6c-1.4-0.1-2.6,0.3-3.6,1.2c-1,0.9-1.6,2-1.6,3.4c-0.1,1.4,0.3,2.6,1.3,3.6 C113.9,248.3,115.1,248.8,116.4,248.9z"/> <path class="st36" d="M123.2,232.2l-2.1,1.6c-0.2,0.1-0.4,0.2-0.6,0.1c-0.2,0-0.4-0.1-0.5-0.3c-0.1-0.2-0.2-0.4-0.2-0.6 c0-0.2,0.1-0.4,0.3-0.5l2.1-1.6l-2.6-3.5c-0.1-0.2-0.2-0.4-0.1-0.6c0-0.2,0.1-0.4,0.3-0.5c0.2-0.1,0.4-0.2,0.6-0.2 c0.2,0,0.4,0.1,0.5,0.3l2.6,3.5l2.1-1.5c0.2-0.1,0.4-0.2,0.6-0.2c0.2,0,0.4,0.1,0.5,0.3c0.1,0.2,0.2,0.4,0.1,0.6 c0,0.2-0.1,0.4-0.3,0.5l-2.1,1.5l6.4,8.6c0.1,0.2,0.2,0.4,0.1,0.6c0,0.2-0.1,0.4-0.3,0.5c-0.2,0.1-0.4,0.2-0.6,0.1 c-0.2,0-0.4-0.1-0.5-0.3L123.2,232.2z"/> <path class="st36" d="M135.7,225.8c-0.3,0.2-0.6,0.2-0.9,0c-0.8-0.5-1.6-0.5-2.3,0c-0.5,0.3-0.8,0.7-0.9,1.3 c-0.1,0.6,0,1.1,0.3,1.6l4.7,7.3c0.1,0.2,0.2,0.4,0.1,0.6c0,0.2-0.2,0.4-0.4,0.5c-0.2,0.1-0.4,0.2-0.6,0.1 c-0.2,0-0.4-0.2-0.5-0.3l-6.2-9.7c-0.1-0.2-0.2-0.4-0.1-0.6c0-0.2,0.2-0.4,0.3-0.5c0.2-0.1,0.3-0.1,0.5-0.1 c0.2,0,0.4,0.1,0.5,0.3c0.3-0.7,0.8-1.3,1.4-1.7c0.6-0.4,1.3-0.6,2-0.6c0.8,0,1.4,0.2,2,0.6c0.1,0,0.1,0.1,0.2,0.2 c0.1,0.2,0.2,0.4,0.1,0.6C136,225.5,135.9,225.7,135.7,225.8z"/> <path class="st36" d="M147.9,230.2c-1.6,0.8-3.3,1-5,0.4c-1.7-0.5-3-1.6-3.8-3.2l-0.2-0.4c0-0.1-0.1-0.2-0.2-0.4 c-0.2-0.8-0.4-1.4-0.4-1.8c-0.1-1.3,0.2-2.5,0.8-3.7c0.6-1.1,1.5-2,2.7-2.6c1.5-0.8,3.1-1,4.8-0.6c1.7,0.4,2.9,1.3,3.7,2.8 l0,0.1c0.1,0.2,0.1,0.4,0.1,0.6c-0.1,0.2-0.2,0.4-0.4,0.5l-9.5,4.9c0.7,1.1,1.6,1.9,2.9,2.3c1.3,0.4,2.5,0.3,3.7-0.4 c1.1-0.6,1.9-1.5,2.4-2.9c0.1-0.2,0.2-0.4,0.4-0.5c0.2-0.1,0.4-0.1,0.6-0.1c0.2,0.1,0.4,0.2,0.5,0.4c0.1,0.2,0.1,0.4,0.1,0.6 c-0.2,0.8-0.6,1.5-1.2,2.2C149.3,229.3,148.7,229.8,147.9,230.2z M142.6,220c-1,0.5-1.7,1.3-2.2,2.3c-0.5,1-0.6,2-0.4,3.1 l8.5-4.4c-0.7-0.8-1.7-1.3-2.8-1.5C144.6,219.3,143.6,219.5,142.6,220z"/> <path class="st36" d="M168.7,221.6c-1.7,0.6-3.4,0.4-5-0.4c-1.6-0.8-2.7-2.1-3.2-3.8c-0.6-1.7-0.4-3.4,0.4-5 c0.8-1.6,2.1-2.7,3.8-3.3c0.8-0.3,1.7-0.4,2.6-0.3c0.9,0.1,1.7,0.3,2.4,0.7c0.2,0.1,0.3,0.3,0.4,0.5c0.1,0.2,0.1,0.4,0,0.6 c-0.1,0.2-0.3,0.3-0.5,0.4c-0.2,0.1-0.4,0-0.6,0c-1.4-0.6-2.6-0.7-3.8-0.3c-1.3,0.4-2.3,1.2-2.9,2.5c-0.6,1.2-0.7,2.5-0.3,3.8 c0.4,1.3,1.2,2.3,2.5,2.9c1.2,0.6,2.5,0.7,3.8,0.3c1.2-0.4,2.1-1.2,2.9-2.5c0.1-0.2,0.3-0.3,0.5-0.4c0.2-0.1,0.4-0.1,0.6,0 c0.2,0.1,0.3,0.3,0.4,0.5c0.1,0.2,0.1,0.4,0,0.6c-0.3,0.7-0.9,1.4-1.6,2C170.3,220.9,169.5,221.3,168.7,221.6z"/> <path class="st36" d="M178.2,205.4c1.8-0.4,3.4-0.1,5,0.9c1.5,1,2.5,2.4,2.9,4.2c0.4,1.8,0.1,3.4-1,5c-1,1.5-2.4,2.5-4.2,2.9 c-1.8,0.4-3.5,0.1-5-1c-1.5-1-2.5-2.4-2.9-4.2c-0.4-1.8-0.1-3.5,0.9-5C175,206.8,176.4,205.8,178.2,205.4z M176.8,216.2 c1.2,0.8,2.4,1,3.8,0.7c1.4-0.3,2.4-1,3.2-2.2c0.8-1.2,1-2.4,0.7-3.8c-0.3-1.4-1-2.4-2.2-3.2c-1.2-0.8-2.4-1-3.8-0.7 c-1.4,0.3-2.4,1-3.2,2.2c-0.8,1.2-1,2.4-0.7,3.8C174.9,214.3,175.6,215.4,176.8,216.2z"/> <path class="st36" d="M187.8,197.4c0-0.3,0-0.6,0.2-0.9c0.2-0.2,0.5-0.4,0.8-0.4c0.3,0,0.6,0,0.9,0.2c0.3,0.2,0.4,0.4,0.4,0.8 c0,0.3,0,0.6-0.2,0.9c-0.2,0.3-0.5,0.4-0.8,0.5c-0.3,0-0.6,0-0.9-0.2C188,198,187.9,197.7,187.8,197.4z M189.3,204 c0.1-0.2,0.3-0.3,0.5-0.3c0.2,0,0.4,0,0.6,0.2c0.2,0.1,0.3,0.3,0.3,0.5l1.4,11.4c0,0.2,0,0.4-0.2,0.6c-0.1,0.2-0.3,0.3-0.5,0.3 c-0.2,0-0.4,0-0.6-0.2c-0.2-0.1-0.3-0.3-0.3-0.5l-1.4-11.4C189.1,204.3,189.2,204.1,189.3,204z"/> <path class="st36" d="M196.7,202.7c0.3,0,0.5,0.1,0.6,0.2c0.1,0.2,0.2,0.3,0.2,0.5c0,0.1,0,0.4,0,0.6c0.8-0.8,1.8-1.3,3-1.3 c1.3-0.1,2.4,0.3,3.3,1.2c0.9,0.9,1.4,1.9,1.5,3.2l0.4,7.7c0,0.2-0.1,0.4-0.2,0.6c-0.1,0.2-0.3,0.2-0.6,0.3 c-0.2,0-0.4-0.1-0.6-0.2c-0.2-0.1-0.2-0.3-0.3-0.5l-0.4-7.7c0-0.8-0.4-1.5-1-2.1c-0.6-0.6-1.3-0.8-2.2-0.8c-0.8,0-1.5,0.4-2.1,1 c-0.6,0.6-0.8,1.3-0.8,2.2c0,0,0,0.1,0,0.1c0,0.1,0,0.1,0,0.1l0.4,7.4c0,0.2-0.1,0.4-0.2,0.6c-0.1,0.2-0.3,0.2-0.6,0.3 c-0.2,0-0.4-0.1-0.6-0.2c-0.2-0.1-0.2-0.3-0.3-0.5l-0.6-11.7c0-0.2,0.1-0.4,0.2-0.6C196.3,202.8,196.5,202.7,196.7,202.7z"/> <path class="st36" d="M210.9,213.5c0.4,0.4,0.9,0.6,1.4,0.7c0.6,0,1.1-0.2,1.5-0.6c0.4-0.4,0.6-0.9,0.7-1.4c0-0.3,0-0.6-0.2-0.8 c-0.1-0.2-0.3-0.4-0.6-0.6c-0.3-0.2-0.5-0.3-0.7-0.4c-0.2-0.1-0.5-0.2-0.8-0.3c-2.3-0.9-3.4-2.1-3.3-3.8c0-1,0.4-1.9,1.2-2.5 c0.7-0.7,1.6-1,2.6-1c1,0,1.9,0.4,2.5,1.2c0.7,0.7,1,1.6,1,2.6c0,0.2-0.1,0.4-0.2,0.5c-0.2,0.1-0.4,0.2-0.6,0.2 c-0.2,0-0.4-0.1-0.5-0.3c-0.1-0.2-0.2-0.3-0.2-0.6c0-0.6-0.2-1.1-0.6-1.5c-0.4-0.4-0.9-0.7-1.4-0.7c-0.6,0-1.1,0.2-1.5,0.6 c-0.4,0.4-0.6,0.9-0.7,1.4c0,0.5,0.2,0.9,0.5,1.3c0.4,0.3,0.9,0.6,1.4,0.8c0.6,0.2,1.1,0.4,1.7,0.7c0.5,0.3,1,0.7,1.4,1.2 c0.4,0.5,0.5,1.2,0.5,2c0,1-0.4,1.9-1.2,2.5c-0.7,0.7-1.6,1-2.6,1c-1,0-1.9-0.4-2.5-1.2c-0.7-0.7-1-1.6-1-2.6 c0-0.2,0.1-0.4,0.3-0.5c0.2-0.1,0.3-0.2,0.6-0.2c0.2,0,0.4,0.1,0.6,0.3c0.1,0.2,0.2,0.3,0.2,0.6 C210.4,212.6,210.5,213.1,210.9,213.5z"/> </g> </g> </g> </g> </svg>